# xmcd CD database file
#
# Track frame offsets:
#	187
#	20307
#	39410
#	59757
#	78865
#	101805
#	120772
#	141497
#	159195
#	176012
#
# Disc length: 2648 seconds
#
# Revision: 3
# Processed by: cddbd v1.5.1PL0 Copyright (c) Steve Scherf et al.
# Submitted via: CDex 1.51
#
DISCID=790a560a
DTITLE=Eurythmics - Revenge
DYEAR=1986
DGENRE=Rock
TTITLE0=Missionary Man
TTITLE1=Thorn In My Side
TTITLE2=When Tomorrow Comes
TTITLE3=The Last Time
TTITLE4=The Miracle Of Love
TTITLE5=Lets Go!
TTITLE6=Take Your Pain Away
TTITLE7=A Little Of You
TTITLE8=In This Town
TTITLE9=I Remember You
EXTD=YEAR: 1986
EXTT0=
EXTT1=
EXTT2=
EXTT3=
EXTT4=
EXTT5=
EXTT6=
EXTT7=
EXTT8=
EXTT9=
PLAYORDER=
